<?xml version="1.0" encoding="utf-8"?>
<!-- Generator: Adobe Illustrator 24.1.1, SVG Export Plug-In . SVG Version: 6.00 Build 0)  -->
<svg version="1.1" id="Livello_1" xmlns="http://www.w3.org/2000/svg" xmlns:xlink="http://www.w3.org/1999/xlink" x="0px" y="0px"
	 viewBox="0 0 16 16" style="enable-background:new 0 0 16 16;" xml:space="preserve">
<style type="text/css">
	.st0{fill:#D3D3D3;}
</style>
<path class="st0" d="M5.5,9.5c0.1,1,0.8,1.7,2.2,1.8V12h0.6v-0.7c1.4-0.1,2.2-0.8,2.2-1.9c0-1-0.6-1.5-1.7-1.8L8.3,7.5V5.6
	c0.6,0.1,1,0.4,1.1,0.8h1.1c-0.1-0.9-0.9-1.6-2.1-1.7V4H7.7v0.7c-1.2,0.1-2,0.8-2,1.9c0,0.9,0.6,1.5,1.6,1.7l0.4,0.1v2
	c-0.6-0.1-1-0.4-1.1-0.9H5.5z M7.7,7.3C7.1,7.2,6.8,6.9,6.8,6.5c0-0.5,0.3-0.8,0.9-0.9L7.7,7.3L7.7,7.3L7.7,7.3z M8.4,8.5
	c0.7,0.2,1,0.4,1,0.9c0,0.5-0.4,0.9-1.1,1L8.4,8.5L8.4,8.5z"/>
<path class="st0" d="M8,15c-3.9,0-7-3.1-7-7s3.1-7,7-7s7,3.1,7,7S11.9,15,8,15z M8,16c4.4,0,8-3.6,8-8s-3.6-8-8-8S0,3.6,0,8
	S3.6,16,8,16z"/>
<path class="st0" d="M8,13.5C5,13.5,2.5,11,2.5,8S5,2.5,8,2.5S13.5,5,13.5,8S11,13.5,8,13.5z M8,14c3.3,0,6-2.7,6-6s-2.7-6-6-6
	S2,4.7,2,8S4.7,14,8,14z"/>
</svg>
