<?xml version="1.0" encoding="utf-8"?>
<!-- Generator: Adobe Illustrator 24.1.1, SVG Export Plug-In . SVG Version: 6.00 Build 0)  -->
<svg version="1.1" id="Livello_1" xmlns="http://www.w3.org/2000/svg" xmlns:xlink="http://www.w3.org/1999/xlink" x="0px" y="0px"
	 viewBox="0 0 16 16" style="enable-background:new 0 0 16 16;" xml:space="preserve">
<style type="text/css">
	.st0{fill:#D3D3D3;}
</style>
<path class="st0" d="M8,5c0.8,0,1.5-0.7,1.5-1.5S8.8,2,8,2S6.5,2.7,6.5,3.5S7.2,5,8,5z M12,8c0.8,0,1.5-0.7,1.5-1.5S12.8,5,12,5
	s-1.5,0.7-1.5,1.5S11.2,8,12,8z M5.5,7c0,0.8-0.7,1.5-1.5,1.5S2.5,7.8,2.5,7S3.2,5.5,4,5.5S5.5,6.2,5.5,7z M6,13
	c0.8,0,1.5-0.7,1.5-1.5S6.8,10,6,10s-1.5,0.7-1.5,1.5S5.2,13,6,13z"/>
<path class="st0" d="M16,8c0,3.1-1.9,2.6-3.6,2.1c-1-0.3-2-0.6-2.4-0.1c-0.6,0.7-0.5,1.8-0.4,2.9C9.8,14.5,10,16,8,16
	c-4.4,0-8-3.6-8-8s3.6-8,8-8S16,3.6,16,8z M8,15c0.6,0,0.7-0.2,0.7-0.2c0.1-0.1,0.1-0.5,0.1-1.1c0-0.2,0-0.4-0.1-0.6
	c-0.1-0.5-0.1-1-0.1-1.5c0-0.7,0.1-1.6,0.7-2.3c0.4-0.4,0.8-0.6,1.3-0.6c0.4,0,0.8,0,1.2,0.1c0.3,0.1,0.7,0.2,1,0.3l0,0
	c0.3,0.1,0.7,0.2,1,0.3c0.7,0.1,0.9,0.1,1,0c0,0,0.3-0.2,0.3-1.4c0-3.9-3.1-7-7-7S1,4.1,1,8S4.1,15,8,15z"/>
</svg>
